<?xml version="1.0" standalone="no"?>
<!DOCTYPE svg PUBLIC "-//W3C//DTD SVG 20010904//EN"
 "http://www.w3.org/TR/2001/REC-SVG-20010904/DTD/svg10.dtd">
<svg version="1.0" xmlns="http://www.w3.org/2000/svg"
 width="512.000000pt" height="512.000000pt" viewBox="0 0 512.000000 512.000000"
 preserveAspectRatio="xMidYMid meet">
<metadata>
Created by potrace 1.14, written by Peter Selinger 2001-2017
</metadata>
<g transform="translate(0.000000,512.000000) scale(0.100000,-0.100000)"
fill="#000000" stroke="none">
<path d="M2325 5114 c-16 -2 -80 -11 -142 -20 -422 -57 -875 -255 -1228 -534
-103 -81 -314 -292 -395 -395 -227 -286 -405 -649 -490 -997 -55 -223 -65
-319 -65 -608 0 -289 10 -385 65 -608 85 -348 263 -711 490 -997 81 -103 292
-314 395 -395 288 -228 646 -404 997 -490 222 -55 318 -65 608 -65 289 0 385
10 608 65 348 85 711 263 997 490 103 81 314 292 395 395 227 286 405 649 490
997 55 223 65 319 65 608 0 289 -10 385 -65 608 -85 348 -263 711 -490 997
-81 103 -292 314 -395 395 -349 276 -777 464 -1220 536 -95 15 -545 28 -620
18z m415 -1444 l0 -290 260 0 260 0 0 -250 0 -250 -260 0 -260 0 0 -488 c0
-418 2 -496 16 -542 29 -99 86 -158 178 -185 67 -20 118 -19 211 5 43 11 79
19 81 18 1 -2 24 -103 50 -226 41 -190 46 -225 33 -232 -29 -19 -228 -60 -336
-70 -76 -7 -148 -7 -226 0 -349 30 -517 179 -619 545 -21 77 -22 99 -26 628
l-3 547 -150 0 -149 0 0 238 0 238 162 12 c89 7 164 15 167 17 2 3 20 123 38
268 18 144 35 272 38 285 l5 22 265 0 265 0 0 -290z"/>
</g>
</svg>
