<?xml version="1.0" standalone="no"?>
<!DOCTYPE svg PUBLIC "-//W3C//DTD SVG 20010904//EN"
 "http://www.w3.org/TR/2001/REC-SVG-20010904/DTD/svg10.dtd">
<svg version="1.0" xmlns="http://www.w3.org/2000/svg"
 width="512.000000pt" height="512.000000pt" viewBox="0 0 512.000000 512.000000"
 preserveAspectRatio="xMidYMid meet">
<metadata>
Created by potrace 1.14, written by Peter Selinger 2001-2017
</metadata>
<g transform="translate(0.000000,512.000000) scale(0.100000,-0.100000)"
fill="#000000" stroke="none">
<path d="M2325 5114 c-16 -2 -80 -11 -142 -20 -422 -57 -875 -255 -1228 -534
-103 -81 -314 -292 -395 -395 -227 -286 -405 -649 -490 -997 -55 -223 -65
-319 -65 -608 0 -289 10 -385 65 -608 85 -348 263 -711 490 -997 81 -103 292
-314 395 -395 288 -228 646 -404 997 -490 222 -55 318 -65 608 -65 289 0 385
10 608 65 348 85 711 263 997 490 103 81 314 292 395 395 227 286 405 649 490
997 55 223 65 319 65 608 0 289 -10 385 -65 608 -85 348 -263 711 -490 997
-81 103 -292 314 -395 395 -349 276 -777 464 -1220 536 -95 15 -545 28 -620
18z m624 -1065 c234 -54 441 -248 545 -511 80 -204 114 -497 85 -756 -32 -298
-130 -526 -307 -714 -175 -185 -390 -276 -626 -266 -167 8 -281 53 -428 171
-33 27 -62 47 -64 45 -2 -2 1 -62 6 -134 5 -71 10 -290 10 -486 l0 -358 -320
0 -320 0 0 1490 0 1490 264 0 263 0 17 -87 c22 -111 25 -123 37 -123 5 0 48
29 96 65 92 68 256 154 333 174 120 32 269 32 409 0z"/>
<path d="M2486 3549 c-70 -11 -161 -59 -242 -127 l-69 -58 -3 -451 -2 -451 37
-32 c53 -43 143 -87 210 -101 83 -17 198 -7 252 20 114 59 202 184 238 338 25
109 25 446 0 546 -49 193 -141 291 -298 317 -35 5 -66 9 -69 9 -3 -1 -27 -5
-54 -10z"/>
</g>
</svg>
